<svg xmlns="http://www.w3.org/2000/svg" viewBox="0 0 120 120" fill="none">
  <defs>
    <clipPath id="africa-clip">
      <path d="M 52 30 C 61 28, 72 30, 76 34 C 78 36, 81 41, 83 45 C 84 48, 81 52, 79 55 C 77 57, 81 59, 80 63 C 78 66, 79 69, 76 72 C 73 75, 71 78, 69 81 C 67 84, 66 88, 63 90 C 61 91, 59 88, 58 85 C 56 82, 56 79, 55 76 C 54 73, 52 70, 50 67 C 48 64, 46 65, 44 62 C 42 59, 41 55, 42 52 C 43 49, 40 48, 41 45 C 42 42, 46 43, 47 41 C 48 39, 49 31, 52 30 Z" />
      <path d="M 79 78 C 80 78, 81 81, 80 84 C 79 85, 78 85, 77 82 C 77 80, 78 79, 79 78 Z" />
    </clipPath>
  </defs>

  <!-- 1. Africa Globe Circular Orbit Lines -->
  <path 
    d="M 60 20 A 40 40 0 0 0 20 60 A 40 40 0 0 0 35 90" 
    fill="none" 
    stroke="#0f172a" 
    stroke-width="2.5" 
    stroke-linecap="round" 
  />
  <path 
    d="M 85 35 A 40 40 0 0 1 100 60 A 40 40 0 0 1 60 100" 
    fill="none" 
    stroke="#dc2626" 
    stroke-width="2.5" 
    stroke-linecap="round" 
  />

  <!-- 2. Africa Continent Filled with Horizontal Stripes -->
  <g clip-path="url(#africa-clip)">
    <rect x="35" y="28" width="50" height="2.5" fill="#0f172a" />
    <rect x="35" y="33" width="50" height="2.5" fill="#0f172a" />
    <rect x="35" y="38" width="50" height="2.5" fill="#0f172a" />
    <rect x="35" y="43" width="50" height="2.5" fill="#0f172a" />
    <rect x="35" y="48" width="50" height="2.5" fill="#0f172a" />
    <rect x="35" y="53" width="50" height="2.5" fill="#0f172a" />
    <rect x="35" y="58" width="50" height="2.5" fill="#0f172a" />
    
    <rect x="35" y="63" width="50" height="2.5" fill="#dc2626" />
    <rect x="35" y="68" width="50" height="2.5" fill="#dc2626" />
    <rect x="35" y="73" width="50" height="2.5" fill="#dc2626" />
    <rect x="35" y="78" width="50" height="2.5" fill="#dc2626" />
    <rect x="35" y="83" width="50" height="2.5" fill="#dc2626" />
    <rect x="35" y="88" width="50" height="2.5" fill="#dc2626" />
    <rect x="35" y="93" width="50" height="2.5" fill="#dc2626" />
  </g>
</svg>
