<svg xmlns="http://www.w3.org/2000/svg" viewBox="0 0 170 120" fill="none">
  <defs>
    <clipPath id="africa-clip">
      <path d="M 122 30 C 131 28, 142 30, 146 34 C 148 36, 151 41, 153 45 C 154 48, 151 52, 149 55 C 147 57, 151 59, 150 63 C 148 66, 149 69, 146 72 C 143 75, 141 78, 139 81 C 137 84, 136 88, 133 90 C 131 91, 129 88, 128 85 C 126 82, 126 79, 125 76 C 124 73, 122 70, 120 67 C 118 64, 116 65, 114 62 C 112 59, 111 55, 112 52 C 113 49, 110 48, 111 45 C 112 42, 116 43, 117 41 C 118 39, 119 31, 122 30 Z" />
      <path d="M 149 78 C 150 78, 151 81, 150 84 C 149 85, 148 85, 147 82 C 147 80, 148 79, 149 78 Z" />
    </clipPath>
  </defs>

  <!-- 1. Africa Globe Circular Orbit Lines -->
  <path 
    d="M 130 20 A 40 40 0 0 0 90 60 A 40 40 0 0 0 105 90" 
    fill="none" 
    stroke="#0f172a" 
    stroke-width="2" 
    stroke-linecap="round" 
  />
  <path 
    d="M 155 35 A 40 40 0 0 1 170 60 A 40 40 0 0 1 130 100" 
    fill="none" 
    stroke="#dc2626" 
    stroke-width="2" 
    stroke-linecap="round" 
  />

  <!-- 2. Africa Continent Filled with Horizontal Stripes -->
  <g clip-path="url(#africa-clip)">
    <rect x="105" y="28" width="50" height="2.5" fill="#0f172a" />
    <rect x="105" y="33" width="50" height="2.5" fill="#0f172a" />
    <rect x="105" y="38" width="50" height="2.5" fill="#0f172a" />
    <rect x="105" y="43" width="50" height="2.5" fill="#0f172a" />
    <rect x="105" y="48" width="50" height="2.5" fill="#0f172a" />
    <rect x="105" y="53" width="50" height="2.5" fill="#0f172a" />
    <rect x="105" y="58" width="50" height="2.5" fill="#0f172a" />
    
    <rect x="105" y="63" width="50" height="2.5" fill="#dc2626" />
    <rect x="105" y="68" width="50" height="2.5" fill="#dc2626" />
    <rect x="105" y="73" width="50" height="2.5" fill="#dc2626" />
    <rect x="105" y="78" width="50" height="2.5" fill="#dc2626" />
    <rect x="105" y="83" width="50" height="2.5" fill="#dc2626" />
    <rect x="105" y="88" width="50" height="2.5" fill="#dc2626" />
    <rect x="105" y="93" width="50" height="2.5" fill="#dc2626" />
  </g>

  <!-- 3. Bold P Letterform -->
  <path 
    d="M 15 35 L 45 35 C 56 35, 63 41, 63 51 C 63 61, 56 67, 45 67 L 29 67 L 29 95 L 15 95 Z M 29 46 L 29 56 L 43 56 C 46 56, 49 54, 49 51 C 49 48, 46 46, 43 46 Z" 
    fill="#0f172a" 
    fill-rule="evenodd"
  />

  <!-- 4. Bold W Letterform -->
  <path 
    d="M 52 35 L 65 35 L 73 74 L 81 35 L 94 35 L 102 74 L 110 35 L 123 35 L 110 95 L 96 95 L 87 56 L 78 95 L 64 95 Z" 
    fill="#dc2626" 
  />

  <!-- 5. Heartbeat Pulsewave (re-routing across the P) -->
  <path 
    d="M 2 60 L 17 60 L 21 46 L 24 74 L 28 35 L 32 83 L 36 52 L 39 66 L 42 60 L 58 60" 
    fill="none" 
    stroke="#ffffff" 
    stroke-width="6.5" 
    stroke-linecap="round" 
    stroke-linejoin="round" 
  />
  <path 
    d="M 2 60 L 17 60 L 21 46 L 24 74 L 28 35 L 32 83 L 36 52 L 39 66 L 42 60 L 58 60" 
    fill="none" 
    stroke="#dc2626" 
    stroke-width="3" 
    stroke-linecap="round" 
    stroke-linejoin="round" 
  />
</svg>
